<?xml version="1.0" encoding="UTF-8"?>
<!-- Do not edit this file with editors other than draw.io -->
<!DOCTYPE svg PUBLIC "-//W3C//DTD SVG 1.1//EN" "http://www.w3.org/Graphics/SVG/1.1/DTD/svg11.dtd">
<svg xmlns="http://www.w3.org/2000/svg" style="background: transparent; background-color: transparent; color-scheme: light dark;" xmlns:xlink="http://www.w3.org/1999/xlink" version="1.1" width="661px" height="121px" viewBox="-0.5 -0.5 661 121" content="&lt;mxfile host=&quot;Electron&quot; agent=&quot;Mozilla/5.0 (Macintosh; Intel Mac OS X 10_15_7) AppleWebKit/537.36 (KHTML, like Gecko) draw.io/27.0.5 Chrome/134.0.6998.205 Electron/35.3.0 Safari/537.36&quot; version=&quot;27.0.5&quot; scale=&quot;1&quot; border=&quot;0&quot;&gt;&#10;  &lt;diagram name=&quot;Page-1&quot; id=&quot;qm6cqSxQ-NDqFPCDc2at&quot;&gt;&#10;    &lt;mxGraphModel dx=&quot;1028&quot; dy=&quot;798&quot; grid=&quot;1&quot; gridSize=&quot;10&quot; guides=&quot;1&quot; tooltips=&quot;1&quot; connect=&quot;1&quot; arrows=&quot;1&quot; fold=&quot;1&quot; page=&quot;1&quot; pageScale=&quot;1&quot; pageWidth=&quot;827&quot; pageHeight=&quot;1169&quot; math=&quot;0&quot; shadow=&quot;0&quot;&gt;&#10;      &lt;root&gt;&#10;        &lt;mxCell id=&quot;0&quot; /&gt;&#10;        &lt;mxCell id=&quot;1&quot; parent=&quot;0&quot; /&gt;&#10;        &lt;mxCell id=&quot;l3Moknx6HDhr0QOWhUZX-10&quot; value=&quot;&quot; style=&quot;rounded=1;whiteSpace=wrap;html=1;&quot; parent=&quot;1&quot; vertex=&quot;1&quot;&gt;&#10;          &lt;mxGeometry x=&quot;110&quot; y=&quot;40&quot; width=&quot;660&quot; height=&quot;120&quot; as=&quot;geometry&quot; /&gt;&#10;        &lt;/mxCell&gt;&#10;        &lt;mxCell id=&quot;l3Moknx6HDhr0QOWhUZX-12&quot; value=&quot;&quot; style=&quot;dashed=0;outlineConnect=0;html=1;align=center;labelPosition=center;verticalLabelPosition=bottom;verticalAlign=top;shape=mxgraph.weblogos.chrome&quot; parent=&quot;1&quot; vertex=&quot;1&quot;&gt;&#10;          &lt;mxGeometry x=&quot;140&quot; y=&quot;62.30000000000001&quot; width=&quot;74.8&quot; height=&quot;75.4&quot; as=&quot;geometry&quot; /&gt;&#10;        &lt;/mxCell&gt;&#10;      &lt;/root&gt;&#10;    &lt;/mxGraphModel&gt;&#10;  &lt;/diagram&gt;&#10;&lt;/mxfile&gt;&#10;"><defs/><g><g data-cell-id="0"><g data-cell-id="1"><g data-cell-id="l3Moknx6HDhr0QOWhUZX-10"><g><rect x="0" y="0" width="660" height="120" rx="18" ry="18" fill="#ffffff" stroke="#000000" pointer-events="all" style="fill: light-dark(#ffffff, var(--ge-dark-color, #121212)); stroke: light-dark(rgb(0, 0, 0), rgb(255, 255, 255));"/></g></g><g data-cell-id="l3Moknx6HDhr0QOWhUZX-12"><g><path d="M 64.04 95.96 C 48.05 94.97 30 80.96 30 59.26 C 30 41.06 43.75 22.3 67.96 22.3 C 93.7 23.88 104.8 45.04 103.79 60.64 C 103.13 81.61 84.49 97.65 64.04 95.96 Z" fill="#4cb749" stroke="none" pointer-events="all" style="fill: rgb(76, 183, 73);"/><path d="M 51.12 64.21 L 36.27 38.5 C 42.64 29.45 52.75 22.3 67.96 22.3 C 81.56 22.99 93.98 30.19 100.07 42.79 L 66.27 42.82 C 61.87 42.88 56.34 45.2 53.03 50.36 C 50.94 53.58 49.43 58.55 51.12 64.21 Z" fill="#df2227" stroke="none" pointer-events="all" style="fill: rgb(223, 34, 39);"/><path d="M 66.5 75.55 C 57.7 75.55 50.38 68.17 50.38 59.34 C 50.68 48 59.83 42.93 66.27 42.82 C 77.98 42.82 83.18 52.53 83.18 59.38 C 82.86 68.28 76.49 75.55 66.5 75.55 Z" fill="#e4e2e2" stroke="none" pointer-events="all" style="fill: rgb(228, 226, 226);"/><path d="M 64.04 95.96 L 79.52 69.63 C 81.58 67.15 83.12 63.2 83.14 59.38 C 83.14 51.92 77.69 42.82 66.27 42.82 L 100.07 42.79 C 103.01 48.75 104.13 55.39 103.79 60.64 C 103.33 79.07 86.97 97.7 64.04 95.96 Z" fill="#fcd209" stroke="none" pointer-events="all" style="fill: rgb(252, 210, 9);"/><path d="M 66.85 72.56 C 59.67 72.56 53.45 66.69 53.45 59.32 C 53.45 50.85 60.47 45.82 66.71 45.82 C 73.08 45.82 80.23 50.57 80.23 59.42 C 80.23 66.07 74.62 72.56 66.85 72.56 Z" fill="#236ba2" stroke="none" pointer-events="all" style="fill: rgb(35, 107, 162);"/><path d="M 100.55 43.82 L 79.59 49.06 C 76.9 45.77 72.84 43.06 66.99 42.81 L 100.07 42.79 Z M 36.96 37.53 L 51.68 52.92 C 49.92 57.3 50.18 61.14 51.13 64.24 L 36.27 38.51 Z M 64.04 95.98 L 69.91 75.28 C 73.66 74.52 76.92 72.72 79.55 69.59 Z" fill-opacity="0.1" fill="#000000" stroke="none" pointer-events="all" style="fill: rgb(0, 0, 0);"/></g></g></g></g></g></svg>